<?xml version="1.0" encoding="UTF-8"?>
<svg width="50px" height="47px" viewBox="0 0 50 47" version="1.1" xmlns="http://www.w3.org/2000/svg" xmlns:xlink="http://www.w3.org/1999/xlink">
    <!-- Generator: sketchtool 41 (35326) - http://www.bohemiancoding.com/sketch -->
    <title>7096028B-9E01-49AB-8DF4-2CB8540063E4</title>
    <desc>Created with sketchtool.</desc>
    <defs></defs>
    <g id="Page-1" stroke="none" stroke-width="1" fill="none" fill-rule="evenodd">
        <g id="Features" transform="translate(-695.000000, -1228.000000)">
            <g id="competitors_icn" transform="translate(695.000000, 1228.000000)">
                <polygon id="Shape" fill="#0DBAE3" points="6.0875513 44.0492476 2.4623803 40.4240766 10.4651163 32.4213406 11.4227086 33.378933 4.37756498 40.4240766 6.0875513 42.1340629 13.1326949 35.0889193 14.0902873 36.0465116"></polygon>
                <path d="M17.0998632,37.3461012 C15.9370725,37.3461012 14.7742818,36.8673051 13.9534884,36.0465116 L10.4651163,32.5581395 C8.75512996,30.8481532 8.75512996,28.0437756 10.4651163,26.2653899 L10.9439124,25.7865937 L20.7250342,35.5677155 L20.246238,36.0465116 C19.4254446,36.8673051 18.3310534,37.3461012 17.0998632,37.3461012 L17.0998632,37.3461012 Z M11.0123119,27.7701778 C10.2599179,28.9329685 10.3967168,30.5745554 11.4227086,31.6005472 L14.9110807,35.0889193 C15.4582763,35.6361149 16.2790698,35.9781122 17.0998632,35.9781122 C17.7154583,35.9781122 18.2626539,35.8413133 18.7414501,35.499316 L11.0123119,27.7701778 L11.0123119,27.7701778 Z" id="Shape" fill="#0DBAE3"></path>
                <path d="M5.67715458,46.374829 C5.12995896,46.374829 4.65116279,46.1696306 4.30916553,45.8276334 L0.752393981,42.2708618 C0.410396717,41.9288646 0.205198358,41.4500684 0.205198358,40.9028728 C0.205198358,40.3556772 0.410396717,39.876881 0.752393981,39.5348837 C1.50478796,38.7824897 2.73597811,38.7824897 3.48837209,39.5348837 L7.04514364,43.0916553 C7.79753762,43.8440492 7.79753762,45.0752394 7.04514364,45.8276334 C6.70314637,46.1696306 6.22435021,46.374829 5.67715458,46.374829 L5.67715458,46.374829 Z M2.12038304,40.2872777 C1.98358413,40.2872777 1.84678523,40.3556772 1.70998632,40.4240766 C1.57318741,40.5608755 1.57318741,40.6976744 1.57318741,40.8344733 C1.57318741,40.9712722 1.64158687,41.1080711 1.70998632,41.24487 L5.26675787,44.8016416 C5.47195622,45.0068399 5.88235294,45.0068399 6.0875513,44.8016416 C6.29274966,44.5964432 6.29274966,44.254446 6.0875513,43.9808482 L2.53077975,40.4240766 C2.39398085,40.3556772 2.25718194,40.2872777 2.12038304,40.2872777 L2.12038304,40.2872777 Z" id="Shape" fill="#0DBAE3"></path>
                <polygon id="Shape" fill="#0DBAE3" points="18.9466484 35.3625171 17.9890561 34.4049248 45.1436389 7.250342 45.1436389 1.36798906 39.9452804 1.36798906 13.2010944 29.001368 12.2435021 28.0437756 39.3980848 0 46.5116279 0 46.5116279 7.79753762"></polygon>
                <rect id="Rectangle-path" fill="#0DBAE3" transform="translate(29.411047, 17.442613) rotate(44.209959) translate(-29.411047, -17.442613) " x="28.7270419" y="-0.204706521" width="1.36800925" height="35.2946388"></rect>
                <rect id="Rectangle-path" fill="#0DA1E3" x="6.15595075" y="36.9357045" width="1.36798906" height="4.7879617"></rect>
                <rect id="Rectangle-path" fill="#0DA1E3" x="8.89192886" y="34.1997264" width="1.36798906" height="4.7879617"></rect>
                <polygon id="Shape" fill="#0DA1E3" points="44.0492476 44.0492476 36.0465116 36.0465116 37.004104 35.0889193 44.0492476 42.1340629 45.6908345 40.4240766 38.6456908 33.378933 39.6032832 32.4213406 47.6060192 40.4240766"></polygon>
                <path d="M32.9685363,37.3461012 C31.8057456,37.3461012 30.6429549,36.8673051 29.8221614,36.0465116 L29.3433653,35.5677155 L39.124487,25.7865937 L39.6032832,26.2653899 C41.3132695,27.9753762 41.3132695,30.7797538 39.6032832,32.5581395 L36.1149111,36.0465116 C35.2941176,36.8673051 34.1313269,37.3461012 32.9685363,37.3461012 L32.9685363,37.3461012 Z M31.3269494,35.499316 C31.8057456,35.7729138 32.3529412,35.9781122 32.9685363,35.9781122 C33.7893297,35.9781122 34.5417237,35.6361149 35.1573187,35.0889193 L38.6456908,31.6005472 C39.6716826,30.5745554 39.8084815,29.001368 39.0560876,27.7701778 L31.3269494,35.499316 L31.3269494,35.499316 Z" id="Shape" fill="#0DA1E3"></path>
                <path d="M44.3912449,46.374829 C43.8440492,46.374829 43.3652531,46.1696306 43.0232558,45.8276334 C42.2708618,45.0752394 42.2708618,43.8440492 43.0232558,43.0916553 L46.5800274,39.5348837 C47.3324213,38.7824897 48.5636115,38.7824897 49.3160055,39.5348837 C49.6580027,39.876881 49.8632011,40.3556772 49.8632011,40.9028728 C49.8632011,41.4500684 49.6580027,41.9288646 49.3160055,42.2708618 L45.7592339,45.8276334 C45.4172367,46.1696306 44.9384405,46.374829 44.3912449,46.374829 L44.3912449,46.374829 Z M48.0164159,40.2872777 C47.879617,40.2872777 47.7428181,40.3556772 47.6060192,40.4240766 L44.0492476,43.9808482 C43.8440492,44.1860465 43.8440492,44.5280438 44.0492476,44.8016416 C44.254446,45.0068399 44.6648427,45.0068399 44.870041,44.8016416 L48.4268126,41.24487 C48.5636115,41.1080711 48.5636115,40.9712722 48.5636115,40.8344733 C48.5636115,40.6976744 48.495212,40.5608755 48.4268126,40.4240766 C48.2900137,40.3556772 48.1532148,40.2872777 48.0164159,40.2872777 L48.0164159,40.2872777 Z" id="Shape" fill="#0DA1E3"></path>
                <rect id="Rectangle-path" fill="#0DA1E3" transform="translate(28.243064, 31.628837) rotate(44.910868) translate(-28.243064, -31.628837) " x="23.6603394" y="30.9448484" width="9.16544987" height="1.36797759"></rect>
                <polygon id="Shape" fill="#0DA1E3" points="18.1942544 22.50342 3.41997264 7.79753762 3.41997264 0 10.7387141 0 25.376197 15.1162791 24.4186047 16.0738714 10.123119 1.36798906 4.7879617 1.36798906 4.7879617 7.250342 19.1518468 21.5458276"></polygon>
                <rect id="Rectangle-path" fill="#0DA1E3" transform="translate(34.328092, 25.366354) rotate(45.899478) translate(-34.328092, -25.366354) " x="29.9506483" y="24.6823788" width="8.75488665" height="1.36795104"></rect>
                <rect id="Rectangle-path" fill="#0DA1E3" transform="translate(15.070588, 11.692801) rotate(45.781939) translate(-15.070588, -11.692801) " x="5.46034187" y="11.0087977" width="19.2204927" height="1.3680066"></rect>
                <rect id="Rectangle-path" fill="#0DA1E3" transform="translate(30.650301, 27.656101) rotate(45.781939) translate(-30.650301, -27.656101) " x="27.2302845" y="26.9720979" width="6.840033" height="1.3680066"></rect>
                <rect id="Rectangle-path" fill="#0DA1E3" x="42.4076607" y="36.9357045" width="1.36798906" height="4.7879617"></rect>
                <rect id="Rectangle-path" fill="#0DA1E3" x="39.6716826" y="34.1997264" width="1.36798906" height="4.7879617"></rect>
            </g>
        </g>
    </g>
</svg>