<?xml version="1.0" encoding="UTF-8"?>
<svg width="370px" height="266px" viewBox="0 0 370 266" version="1.1" xmlns="http://www.w3.org/2000/svg" xmlns:xlink="http://www.w3.org/1999/xlink">
    <!-- Generator: sketchtool 40.1 (33804) - http://www.bohemiancoding.com/sketch -->
    <title>38C9D785-6B0C-4FAE-A585-BF559426C7D4</title>
    <desc>Created with sketchtool.</desc>
    <defs>
        <rect id="path-1" x="0" y="0" width="314" height="210" rx="5"></rect>
        <filter x="-50%" y="-50%" width="200%" height="200%" filterUnits="objectBoundingBox" id="filter-2">
            <feOffset dx="0" dy="0" in="SourceAlpha" result="shadowOffsetOuter1"></feOffset>
            <feGaussianBlur stdDeviation="14" in="shadowOffsetOuter1" result="shadowBlurOuter1"></feGaussianBlur>
            <feColorMatrix values="0 0 0 0 0   0 0 0 0 0   0 0 0 0 0  0 0 0 0.1 0" type="matrix" in="shadowBlurOuter1"></feColorMatrix>
        </filter>
        <rect id="path-3" x="0" y="0" width="117" height="111" rx="4"></rect>
        <linearGradient x1="127.238182%" y1="44.5281804%" x2="0%" y2="44.5281804%" id="linearGradient-5">
            <stop stop-color="#FC75FF" offset="0%"></stop>
            <stop stop-color="#33AAF5" offset="100%"></stop>
        </linearGradient>
        <linearGradient x1="100%" y1="50%" x2="-17.3446808%" y2="50%" id="linearGradient-6">
            <stop stop-color="#FA3434" offset="0%"></stop>
            <stop stop-color="#F8B95E" offset="100%"></stop>
        </linearGradient>
        <rect id="path-7" x="0" y="0" width="117" height="111" rx="4"></rect>
    </defs>
    <g id="Page-1" stroke="none" stroke-width="1" fill="none" fill-rule="evenodd">
        <g id="SMM" transform="translate(-773.000000, -1357.000000)">
            <g id="Group-12" transform="translate(801.000000, 1385.000000)">
                <g id="Rectangle-5">
                    <use fill="black" fill-opacity="1" filter="url(#filter-2)" xlink:href="#path-1"></use>
                    <use fill="#FFFFFF" fill-rule="evenodd" xlink:href="#path-1"></use>
                </g>
                <rect id="Rectangle-5-Copy" fill="#F7F8FA" x="10" y="30" width="294" height="170" rx="4"></rect>
                <g id="Group-2" transform="translate(167.000000, 69.000000)">
                    <mask id="mask-4" fill="white">
                        <use xlink:href="#path-3"></use>
                    </mask>
                    <use id="Mask" fill="#FFFFFF" xlink:href="#path-3"></use>
                    <g id="Group-11" mask="url(#mask-4)">
                        <g transform="translate(10.000000, 16.000000)">
                            <g id="barleft">
                                <path d="M10,0 L44,0 L44,5 L10,5 L10,0 Z M33,11 L44,11 L44,16 L33,16 L33,11 Z M15,22 L44,22 L44,27 L15,27 L15,22 Z M23,31 L44,31 L44,38 L23,38 L23,31 Z M12,43 L44,43 L44,48 L12,48 L12,43 Z M28,54 L44,54 L44,59 L28,59 L28,54 Z M5,65 L44,65 L44,70 L5,70 L5,65 Z M33,76 L44,76 L44,81 L33,81 L33,76 Z M0,97 L44,97 L44,102 L0,102 L0,97 Z M39,108 L44,108 L44,113 L39,113 L39,108 Z" id="Combined-Shape" fill="url(#linearGradient-5)"></path>
                            </g>
                            <g id="barright" transform="translate(47.000000, 0.000000)">
                                <path d="M0,0 L27,0 L27,5 L0,5 L0,0 Z M0,11 L22,11 L22,16 L0,16 L0,11 Z M0,22 L35,22 L35,27 L0,27 L0,22 Z M0,31 L48,31 L48,38 L0,38 L0,31 Z M0,43 L27,43 L27,48 L0,48 L0,43 Z M0,54 L11,54 L11,59 L0,59 L0,54 Z M0,65 L22,65 L22,70 L0,70 L0,65 Z M0,76 L35,76 L35,81 L0,81 L0,76 Z M0,97 L29,97 L29,102 L0,102 L0,97 Z M0,108 L17,108 L17,113 L0,113 L0,108 Z" id="Combined-Shape" fill="url(#linearGradient-6)"></path>
                            </g>
                        </g>
                    </g>
                </g>
                <circle id="Oval-3" fill="#E5594E" cx="12" cy="15" r="2"></circle>
                <circle id="Oval-3-Copy" fill="#FCD439" cx="20" cy="15" r="2"></circle>
                <circle id="Oval-3-Copy-2" fill="#97CA65" cx="28" cy="15" r="2"></circle>
                <g id="Path-2" transform="translate(30.000000, 69.000000)">
                    <mask id="mask-8" fill="white">
                        <use xlink:href="#path-7"></use>
                    </mask>
                    <use id="Mask" fill="#FFFFFF" xlink:href="#path-7"></use>
                    <path d="M-3.9921875,63.7832031 C-3.9921875,63.7832031 -3.52309669,94.3601539 11.0703125,87.2207031 C20.4024562,82.6551914 14.9612818,68.137186 19.6601562,72.1152344 C31.7070312,82.3140709 25.0839844,83.1640625 31.9648438,81.0586929 C35.6187004,79.9407049 40.8124728,89.0154826 45.9932251,83.5332031 C50.5687472,78.6913792 54.9156489,59.3372422 61.3183594,56.9043954 C68.8468455,54.0437861 69.9494079,67.1590009 73.2851562,72.1152344 C75.9985369,76.1467579 81.1103601,71.2479903 84.9082031,76.543068 C88.6383403,81.743748 89.6038712,90.5756939 92.8828125,91.5811043 C97.0465278,92.8578098 103.358985,85.1408523 106.478516,81.058693 C109.766639,76.7559156 110.346914,77.6335136 115.451172,69.171875 C119.002982,63.2838243 123.141806,46.9267819 138.617188,46.0372079 C176.332031,43.8692392 99.0332031,137.162208 99.0332031,137.162208 L-57,123.619239 L-3.9921875,63.7832031 Z" stroke="#4EAAFF" fill-opacity="0.799999952" fill="#4EAAFF" mask="url(#mask-8)"></path>
                </g>
            </g>
        </g>
    </g>
</svg>