<?xml version="1.0" encoding="UTF-8"?>
<svg width="362px" height="300px" viewBox="0 0 362 300" version="1.1" xmlns="http://www.w3.org/2000/svg" xmlns:xlink="http://www.w3.org/1999/xlink">
    <!-- Generator: sketchtool 40.3 (33839) - http://www.bohemiancoding.com/sketch -->
    <title>1F316764-719D-41AA-9D84-09A06EC52973</title>
    <desc>Created with sketchtool.</desc>
    <defs>
        <rect id="path-1" x="0" y="0" width="314" height="210" rx="5"></rect>
        <filter x="-50%" y="-50%" width="200%" height="200%" filterUnits="objectBoundingBox" id="filter-2">
            <feOffset dx="0" dy="0" in="SourceAlpha" result="shadowOffsetOuter1"></feOffset>
            <feGaussianBlur stdDeviation="12" in="shadowOffsetOuter1" result="shadowBlurOuter1"></feGaussianBlur>
            <feColorMatrix values="0 0 0 0 0   0 0 0 0 0   0 0 0 0 0  0 0 0 0.1 0" type="matrix" in="shadowBlurOuter1"></feColorMatrix>
        </filter>
        <rect id="path-3" x="0" y="0" width="117" height="111" rx="4"></rect>
        <linearGradient x1="127.238182%" y1="44.5281804%" x2="0%" y2="44.5281804%" id="linearGradient-5">
            <stop stop-color="#FC75FF" offset="0%"></stop>
            <stop stop-color="#33AAF5" offset="100%"></stop>
        </linearGradient>
        <rect id="path-6" x="0" y="0" width="117" height="111" rx="4"></rect>
        <rect id="path-8" x="22.9833333" y="4.7846" width="36.7799988" height="3.6"></rect>
        <filter x="-50%" y="-50%" width="200%" height="200%" filterUnits="objectBoundingBox" id="filter-9">
            <feOffset dx="0" dy="0" in="SourceAlpha" result="shadowOffsetOuter1"></feOffset>
            <feGaussianBlur stdDeviation="6" in="shadowOffsetOuter1" result="shadowBlurOuter1"></feGaussianBlur>
            <feColorMatrix values="0 0 0 0 0   0 0 0 0 0   0 0 0 0 0  0 0 0 0.12 0" type="matrix" in="shadowBlurOuter1"></feColorMatrix>
        </filter>
    </defs>
    <g id="Page-1" stroke="none" stroke-width="1" fill="none" fill-rule="evenodd">
        <g id="Competitor-SEO/PPC-research-tool" transform="translate(-283.000000, -853.000000)">
            <g id="Group-8" transform="translate(289.000000, 853.000000)">
                <g id="Group-9">
                    <rect id="Rectangle-13" fill="#FFFFFF" x="0" y="0" width="350" height="300"></rect>
                    <g id="Group-12" transform="translate(18.000000, 45.000000)">
                        <g id="Rectangle-5">
                            <use fill="black" fill-opacity="1" filter="url(#filter-2)" xlink:href="#path-1"></use>
                            <use fill="#FFFFFF" fill-rule="evenodd" xlink:href="#path-1"></use>
                        </g>
                        <rect id="Rectangle-5-Copy" fill="#F7F8FA" x="10" y="30" width="294" height="170" rx="4"></rect>
                        <g id="Group-2" transform="translate(167.000000, 69.000000)">
                            <mask id="mask-4" fill="white">
                                <use xlink:href="#path-3"></use>
                            </mask>
                            <use id="Mask" fill="#FFFFFF" xlink:href="#path-3"></use>
                            <path d="M82.6186111,38 C78.4676389,38 75.09125,41.366 75.09125,45.5042 C75.09125,47.3042 75.7575,48.9386 76.8227778,50.2328 L69.0534722,59.2004 C68.0875,58.7504 67.0222222,58.4804 65.8883333,58.4804 C64.9530556,58.4804 64.0683333,58.673 63.2413889,58.9844 L55.8566667,50.4614 C57.0375,49.1366 57.7777778,47.4122 57.7777778,45.506 C57.7777778,41.3678 54.4013889,38.0018 50.2522222,38.0018 C46.1030556,38.0018 42.7266667,41.3678 42.7266667,45.506 C42.7266667,47.27 43.3658333,48.872 44.3931944,50.1554 L36.5986111,59.1518 C35.6579167,58.7288 34.6215278,58.4822 33.5255556,58.4822 C29.3763889,58.4822 26,61.8482 26,65.9846 C26,70.1228 29.3763889,73.4888 33.5255556,73.4888 C37.6747222,73.4888 41.0511111,70.1228 41.0511111,65.9846 C41.0511111,64.2458 40.43,62.6636 39.4297222,61.391 L47.2423611,52.373 C48.165,52.7762 49.1815278,53.0084 50.2522222,53.0084 C51.1748611,53.0084 52.0469444,52.8194 52.8648611,52.5152 L60.2622222,61.0544 C59.0940278,62.3756 58.3627778,64.091 58.3627778,65.9864 C58.3627778,70.1246 61.7391667,73.4906 65.8883333,73.4906 C70.0393056,73.4906 73.4156944,70.1246 73.4156944,65.9864 C73.4156944,64.2836 72.8216667,62.7302 71.8593056,61.4702 L79.6990278,52.4216 C80.5963889,52.7996 81.5840278,53.0102 82.6186111,53.0102 C86.7677778,53.0102 90.1441667,49.6442 90.1441667,45.5078 C90.1423611,41.366 86.7659722,38 82.6186111,38 L82.6186111,38 Z M33.52375,69.887 C31.3661111,69.887 29.6093056,68.1356 29.6093056,65.9828 C29.6093056,63.8318 31.3661111,62.0804 33.52375,62.0804 C35.6813889,62.0804 37.4381944,63.8318 37.4381944,65.9828 C37.4381944,68.1356 35.6813889,69.887 33.52375,69.887 L33.52375,69.887 Z M50.2522222,49.4066 C48.0945833,49.4066 46.3377778,47.6552 46.3377778,45.5042 C46.3377778,43.3514 48.0945833,41.6 50.2522222,41.6 C52.4098611,41.6 54.1666667,43.3514 54.1666667,45.5042 C54.1666667,47.6552 52.4098611,49.4066 50.2522222,49.4066 L50.2522222,49.4066 Z M65.8883333,69.887 C63.7306944,69.887 61.9738889,68.1356 61.9738889,65.9828 C61.9738889,63.8318 63.7306944,62.0804 65.8883333,62.0804 C68.0477778,62.0804 69.8045833,63.8318 69.8045833,65.9828 C69.8045833,68.1356 68.0477778,69.887 65.8883333,69.887 L65.8883333,69.887 Z M82.6186111,49.4066 C80.4591667,49.4066 78.7023611,47.6552 78.7023611,45.5042 C78.7023611,43.3514 80.4591667,41.6 82.6186111,41.6 C84.77625,41.6 86.5330556,43.3514 86.5330556,45.5042 C86.53125,47.6552 84.77625,49.4066 82.6186111,49.4066 L82.6186111,49.4066 Z" id="Shape" fill="url(#linearGradient-5)" mask="url(#mask-4)"></path>
                        </g>
                        <circle id="Oval-3" fill="#E5594E" cx="12" cy="15" r="2"></circle>
                        <circle id="Oval-3-Copy" fill="#FCD439" cx="20" cy="15" r="2"></circle>
                        <circle id="Oval-3-Copy-2" fill="#97CA65" cx="28" cy="15" r="2"></circle>
                        <g id="Path-2" transform="translate(30.000000, 69.000000)">
                            <mask id="mask-7" fill="white">
                                <use xlink:href="#path-6"></use>
                            </mask>
                            <use id="Mask" fill="#FFFFFF" xlink:href="#path-6"></use>
                            <path d="M27,83.1364 L87.5348611,83.1364 L87.5348611,86.7364 L27,86.7364 L27,83.1364 Z M27,75.7564 L87.5348611,75.7564 L87.5348611,79.3564 L27,79.3564 L27,75.7564 Z M27,61 L87.5348611,61 L87.5348611,64.6 L27,64.6 L27,61 Z M27,68.38 L87.5348611,68.38 L87.5348611,71.98 L27,71.98 L27,68.38 Z" id="Combined-Shape" fill="#4DA8FC" mask="url(#mask-7)"></path>
                            <g id="Group-24" mask="url(#mask-7)">
                                <g transform="translate(24.000000, 27.000000)">
                                    <g id="Rectangle-path" fill="none">
                                        <use fill="black" fill-opacity="1" filter="url(#filter-9)" xlink:href="#path-8"></use>
                                        <use fill="#E17CFD" fill-rule="evenodd" xlink:href="#path-8"></use>
                                    </g>
                                    <path d="M10.2857265,6.71427822 C10.2857265,8.91963799 8.49108155,10.714283 6.28572178,10.714283 C4.08036201,10.714283 2.28571701,8.91963799 2.28571701,6.71427822 C2.28571701,4.50891845 4.08036201,2.71427345 6.28572178,2.71427345 C8.49108155,2.71427345 10.2857265,4.50891845 10.2857265,6.71427822 L10.2857265,6.71427822 Z M14.8571606,14.1428585 C14.8571606,13.8392867 14.7321604,13.5446435 14.526803,13.3392861 L11.4642994,10.2767825 C12.1875145,9.23213837 12.5714436,7.98213688 12.5714436,6.71427822 C12.5714436,3.2410598 9.7589402,0.428556442 6.28572178,0.428556442 C2.81250335,0.428556442 0,3.2410598 0,6.71427822 C0,10.1874966 2.81250335,13 6.28572178,13 C7.55358043,13 8.80358192,12.616071 9.84822603,11.8928558 L12.9107297,14.9464309 C13.1160871,15.1607169 13.4107303,15.285717 13.7143021,15.285717 C14.3393028,15.285717 14.8571606,14.7678593 14.8571606,14.1428585 L14.8571606,14.1428585 Z" id="Search---FontAwesome" fill="#E17CFD" fill-rule="evenodd"></path>
                                </g>
                            </g>
                        </g>
                    </g>
                </g>
            </g>
        </g>
    </g>
</svg>