<?xml version="1.0" encoding="UTF-8"?>
<svg width="30px" height="30px" viewBox="0 0 30 30" version="1.1" xmlns="http://www.w3.org/2000/svg" xmlns:xlink="http://www.w3.org/1999/xlink">
    <!-- Generator: sketchtool 41.1 (35376) - http://www.bohemiancoding.com/sketch -->
    <title>42E2E385-A94E-40C2-A15D-21D905C7B91D</title>
    <desc>Created with sketchtool.</desc>
    <defs></defs>
    <g id="Page-1" stroke="none" stroke-width="1" fill="none" fill-rule="evenodd">
        <g id="Backlink-checker" transform="translate(-445.000000, -1846.000000)" fill="#BF62D2">
            <g id="Group-18" transform="translate(219.000000, 1592.000000)">
                <g id="Group-12" transform="translate(0.000000, 215.000000)">
                    <g id="Group-29" transform="translate(96.000000, 39.000000)">
                        <path d="M159.737098,28.3886719 L150.652386,19.21875 C151.48978,18.2031199 152.151896,17.0556705 152.638754,15.7763672 C153.125611,14.4970639 153.369036,13.1445384 153.369036,11.71875 C153.369036,10.0976481 153.06232,8.57422588 152.44888,7.1484375 C151.83544,5.72264912 150.998058,4.48242715 149.936709,3.42773438 C148.87536,2.3730416 147.633892,1.53808901 146.212269,0.922851562 C144.790645,0.307614111 143.28141,0 141.684518,0 C140.068152,0 138.549179,0.307614111 137.127556,0.922851562 C135.705933,1.53808901 134.464465,2.3730416 133.403116,3.42773438 C132.341767,4.48242715 131.509253,5.72264912 130.90555,7.1484375 C130.301847,8.57422588 130,10.0976481 130,11.71875 C130,13.3398519 130.301847,14.8632741 130.90555,16.2890625 C131.509253,17.7148509 132.341767,18.9550729 133.403116,20.0097656 C134.464465,21.0644584 135.705933,21.899411 137.127556,22.5146484 C138.549179,23.1298859 140.068152,23.4375 141.684518,23.4375 C143.14509,23.4375 144.527744,23.1835963 145.832522,22.6757812 C147.1373,22.1679662 148.30574,21.4648482 149.337877,20.5664062 L158.393379,29.7070312 C158.588122,29.9023447 158.812073,30 159.065239,30 C159.318404,30 159.542355,29.9023447 159.737098,29.7070312 C159.912367,29.5312491 160,29.3115248 160,29.0478516 C160,28.7841784 159.912367,28.564454 159.737098,28.3886719 L159.737098,28.3886719 Z M141.684518,21.5917969 C140.321317,21.5917969 139.040902,21.3330104 137.843233,20.8154297 C136.645564,20.297849 135.603705,19.5898482 134.717624,18.6914062 C133.831544,17.7929643 133.13048,16.7480528 132.614411,15.5566406 C132.098342,14.3652284 131.840312,13.0859443 131.840312,11.71875 C131.840312,10.3515557 132.098342,9.07227158 132.614411,7.88085938 C133.13048,6.68944717 133.831544,5.64453574 134.717624,4.74609375 C135.603705,3.84765176 136.645564,3.13965103 137.843233,2.62207031 C139.040902,2.1044896 140.321317,1.84570312 141.684518,1.84570312 C143.028244,1.84570312 144.298923,2.1044896 145.496592,2.62207031 C146.694261,3.13965103 147.73612,3.84765176 148.622201,4.74609375 C149.508281,5.64453574 150.209345,6.68944717 150.725414,7.88085938 C151.241483,9.07227158 151.499513,10.3515557 151.499513,11.71875 C151.499513,13.0859443 151.241483,14.3652284 150.725414,15.5566406 C150.209345,16.7480528 149.508281,17.7929643 148.622201,18.6914062 C147.73612,19.5898482 146.694261,20.297849 145.496592,20.8154297 C144.298923,21.3330104 143.028244,21.5917969 141.684518,21.5917969 L141.684518,21.5917969 Z" id="Magnifier---simple-line-icons"></path>
                    </g>
                </g>
            </g>
        </g>
    </g>
</svg>