<?xml version="1.0" encoding="UTF-8"?>
<svg width="30px" height="30px" viewBox="0 0 30 30" version="1.1" xmlns="http://www.w3.org/2000/svg" xmlns:xlink="http://www.w3.org/1999/xlink">
    <!-- Generator: sketchtool 41.1 (35376) - http://www.bohemiancoding.com/sketch -->
    <title>DC588E67-D5E8-478A-9558-C201E9475131</title>
    <desc>Created with sketchtool.</desc>
    <defs></defs>
    <g id="Page-1" stroke="none" stroke-width="1" fill="none" fill-rule="evenodd">
        <g id="Backlink-checker" transform="translate(-957.000000, -1846.000000)" fill="#FF6464">
            <g id="Group-18" transform="translate(219.000000, 1592.000000)">
                <g id="Group-12" transform="translate(0.000000, 215.000000)">
                    <g id="Group-26" transform="translate(614.000000, 39.000000)">
                        <path d="M153.902407,21.3910506 L151.501626,16.9844358 L151.501626,16.9844358 L151.325959,16.6634241 C151.267404,16.5856027 151.203969,16.5223738 151.135654,16.4737354 C151.067338,16.425097 150.984385,16.3910507 150.886792,16.3715953 C150.808718,16.35214 150.725765,16.3472762 150.637931,16.3570039 C150.550097,16.3667316 150.467144,16.4007779 150.389069,16.459144 L150.096291,16.6342412 L150.096291,16.6634241 L145.821731,19.5233463 C145.665581,19.6206231 145.56311,19.7616722 145.514314,19.9464981 C145.465517,20.1313239 145.489915,20.3112832 145.587508,20.4863813 L145.792453,20.6906615 C145.890046,20.8463043 146.031554,20.933852 146.216981,20.9533074 C146.402408,20.9727627 146.573194,20.9338526 146.729343,20.8365759 L149.276513,19.0856031 C149.120363,20.3112902 148.773913,21.4445473 148.23715,22.4854086 C147.700388,23.5262698 147.017245,24.4455213 146.187703,25.2431907 C145.358161,26.04086 144.411521,26.6877407 143.347755,27.1838521 C142.283989,27.6799636 141.147046,27.9863807 139.93689,28.1031128 L139.93689,9.36770428 L143.68445,9.36770428 C143.938192,9.36770428 144.157774,9.27529275 144.343201,9.09046693 C144.528628,8.9056411 144.62134,8.68677169 144.62134,8.43385214 C144.62134,8.18093259 144.528628,7.96206318 144.343201,7.77723735 C144.157774,7.59241153 143.938192,7.5 143.68445,7.5 L139.907612,7.5 C139.888094,7.48054465 139.878334,7.46595336 139.878334,7.45622568 L139.878334,7.44163424 C140.717636,7.24708074 141.410537,6.80934193 141.957059,6.12840467 C142.503581,5.44746741 142.776838,4.65953755 142.776838,3.76459144 C142.776838,2.73345788 142.410869,1.84825272 141.67892,1.10894942 C140.946971,0.369646109 140.054007,0 139,0 C137.965512,0 137.077427,0.369646109 136.335719,1.10894942 C135.594011,1.84825272 135.223162,2.73345788 135.223162,3.76459144 C135.223162,4.65953755 135.501299,5.44260365 136.05758,6.11381323 C136.613861,6.78502281 137.301883,7.21789786 138.121666,7.41245136 L138.121666,7.45622568 C138.121666,7.46595336 138.111906,7.48054465 138.092388,7.5 L134.31555,7.5 C134.061808,7.5 133.842226,7.59241153 133.656799,7.77723735 C133.471372,7.96206318 133.37866,8.18093259 133.37866,8.43385214 C133.37866,8.68677169 133.471372,8.9056411 133.656799,9.09046693 C133.842226,9.27529275 134.061808,9.36770428 134.31555,9.36770428 L138.06311,9.36770428 L138.06311,28.1031128 C136.852954,27.9863807 135.716011,27.6799636 134.652245,27.1838521 C133.588479,26.6877407 132.641839,26.04086 131.812297,25.2431907 C130.982755,24.4455213 130.299612,23.5262698 129.76285,22.4854086 C129.226087,21.4445473 128.879637,20.3112902 128.723487,19.0856031 L131.270657,20.8365759 C131.426806,20.9338526 131.597592,20.9727627 131.783019,20.9533074 C131.968446,20.933852 132.109954,20.8463043 132.207547,20.6906615 L132.412492,20.4863813 C132.510085,20.3112832 132.534483,20.1313239 132.485686,19.9464981 C132.43689,19.7616722 132.334419,19.6206231 132.178269,19.5233463 L127.903709,16.6342412 L127.903709,16.6342412 L127.610931,16.459144 C127.532856,16.4007779 127.449903,16.3667316 127.362069,16.3570039 C127.274235,16.3472762 127.191282,16.35214 127.113208,16.3715953 C127.015615,16.3910507 126.932662,16.425097 126.864346,16.4737354 C126.796031,16.5223738 126.732596,16.5856027 126.674041,16.6634241 L126.498374,16.9844358 L126.498374,16.9844358 L124.097593,21.3910506 C124,21.5661487 123.975602,21.746108 124.024398,21.9309339 C124.073195,22.1157597 124.175666,22.2568089 124.331815,22.3540856 L124.595316,22.4708171 C124.751465,22.5680939 124.917371,22.5826852 125.093039,22.5145914 C125.268706,22.4464977 125.405335,22.3249036 125.502928,22.1498054 L126.908263,19.5525292 C127.122968,21.0505911 127.586529,22.4367641 128.298959,23.7110895 C129.01139,24.9854149 129.909233,26.0894895 130.992518,27.0233463 C132.075803,27.9572031 133.300579,28.6867678 134.666884,29.2120623 C136.033188,29.7373567 137.477546,30 139,30 C140.522454,30 141.966812,29.7373567 143.333116,29.2120623 C144.699421,28.6867678 145.924197,27.9572031 147.007482,27.0233463 C148.090767,26.0894895 148.98861,24.9854149 149.701041,23.7110895 C150.413471,22.4367641 150.877032,21.0505911 151.091737,19.5525292 L152.497072,22.1498054 C152.594665,22.3249036 152.731294,22.4464977 152.906961,22.5145914 C153.082629,22.5826852 153.248535,22.5680939 153.404684,22.4708171 L153.668185,22.3540856 C153.824334,22.2568089 153.926805,22.1157597 153.975602,21.9309339 C154.024398,21.746108 154,21.5661487 153.902407,21.3910506 L153.902407,21.3910506 Z M137.12622,3.76459144 C137.12622,3.23929698 137.311644,2.79183064 137.682498,2.42217899 C138.053353,2.05252733 138.492515,1.86770428 139,1.86770428 C139.527003,1.86770428 139.980805,2.05252733 140.361418,2.42217899 C140.742032,2.79183064 140.932336,3.23929698 140.932336,3.76459144 C140.932336,4.28988589 140.742032,4.73735224 140.361418,5.10700389 C139.980805,5.47665554 139.527003,5.6614786 139,5.6614786 C138.492515,5.6614786 138.053353,5.47665554 137.682498,5.10700389 C137.311644,4.73735224 137.12622,4.28988589 137.12622,3.76459144 L137.12622,3.76459144 Z" id="Anchor---simple-line-icons"></path>
                    </g>
                </g>
            </g>
        </g>
    </g>
</svg>